<?xml version="1.0" encoding="UTF-8"?><svg id="b" xmlns="http://www.w3.org/2000/svg" viewBox="0 0 309.907 43.426"><defs><style>.j{fill:#426da9;}.j,.k,.l,.m{stroke-width:0px;}.k{fill:#b89d18;}.l{fill:#0099a8;}.m{fill:#041e41;}</style></defs><g id="c"><g id="d"><g id="e"><polygon id="f" class="l" points="28.047 7.688 28.047 15.378 35.736 15.378 35.736 28.047 43.425 28.047 43.425 7.688 28.047 7.688"/><path id="g" class="j" d="M7.688,0h20.359v7.688h-12.669v7.689h-7.689V0Z"/><path id="h" class="m" d="M55.009,20.321h-4.783v15.173h4.783c4.271,0,8.011-1.724,8.011-7.69,0-5.759-3.68-7.483-8.011-7.483ZM55.226,32.193h-1.083v-8.468h1.044c2.991,0,3.897,1.311,3.897,4.12,0,3.075-.886,4.347-3.858,4.347ZM68.983,32.193h6.791v3.301h-10.727v-15.173h10.392v3.405h-6.457v2.458h4.606v3.199h-4.606v2.81ZM83.193,20.321h-5.452v15.173h3.898v-4.84h1.554c2.855,0,6.299-.676,6.299-5.167s-3.189-5.166-6.299-5.166ZM83.331,27.537h-1.692v-3.895h1.692c1.831,0,2.323.799,2.323,1.949s-.492,1.946-2.323,1.946ZM93.744,20.259l-5.158,15.235h3.583l.944-2.831h4.587l.885,2.831h3.976l-5.158-15.235h-3.66ZM94.04,29.751l1.398-4.203h.038l1.339,4.203h-2.775ZM115.828,25.263c0-3.65-2.283-4.942-6.023-4.942h-5.688v15.173h3.858v-5.27h1.082l2.815,5.27h4.173l-3.09-5.804c1.909-.678,2.873-2.05,2.873-4.427ZM109.666,27.107h-1.692v-3.465h1.692c1.615,0,2.324.452,2.324,1.723s-.709,1.743-2.324,1.743ZM116.851,20.321h12.321v3.405h-4.191v11.768h-3.937v-11.768h-4.192v-3.405ZM140.982,20.321h5.334v15.173h-3.759v-9.391h-.039c-.236,1.558-.472,2.52-.788,3.691l-1.535,5.7h-3.465l-1.495-5.7c-.336-1.232-.511-1.908-.827-3.896h-.039v9.596h-3.503v-15.173h5.215l2.559,10.293h.04l2.303-10.293ZM152.969,32.193h6.79v3.301h-10.728v-15.173h10.393v3.405h-6.456v2.458h4.605v3.199h-4.605v2.81ZM170.977,20.321h3.602v15.173h-3.64l-5.571-8.489h-.039v8.489h-3.603v-15.173h3.878l5.335,8.508h.038v-8.508ZM176.272,20.321h12.322v3.405h-4.194v11.768h-3.936v-11.768h-4.192v-3.405ZM201.799,20.035c-3.522,0-7.163,2.315-7.163,7.87s3.641,7.875,7.163,7.875c3.504,0,7.146-2.316,7.146-7.875s-3.642-7.87-7.146-7.87ZM201.799,32.5c-2.067,0-3.228-1.804-3.228-4.595s1.161-4.489,3.228-4.489c2.048,0,3.209,1.702,3.209,4.489s-1.161,4.595-3.209,4.595ZM210.972,20.321h10.059v3.405h-6.122v3.032h4.271v3.199h-4.271v5.537h-3.936v-15.173ZM237.45,20.321h4.101v15.173h-4.101v-6.132h-5.044v6.132h-4.099v-15.173h4.099v5.639h5.044v-5.639ZM248.481,32.193h7.072v3.301h-11.173v-15.173h10.826v3.405h-6.725v2.458h4.797v3.199h-4.797v2.81ZM261.766,20.259l-5.371,15.235h3.732l.985-2.831h4.777l.921,2.831h4.143l-5.373-15.235h-3.813ZM262.074,29.751l1.456-4.203h.04l1.396,4.203h-2.892ZM276.672,32.193h6.376v3.301h-10.477v-15.173h4.101v11.872ZM282.064,20.321h12.835v3.405h-4.367v11.768h-4.1v-11.768h-4.367v-3.405ZM309.907,20.321v15.173h-4.1v-6.132h-5.046v6.132h-4.1v-15.173h4.1v5.639h5.046v-5.639h4.1ZM7.688,28.047h7.689v7.69H0V15.378h7.688v12.669Z"/><path id="i" class="k" d="M28.047,28.047h7.689v15.379H15.378v-7.688h12.669v-7.69ZM52.033,7.957h-1.585v8.802h6.194v-1.115h-4.609v-7.687ZM69.466,11.356c.072.353.108.69.108,1.014,0,.491-.083,1.002-.248,1.531-.165.529-.429,1.019-.793,1.465-.363.447-.842.814-1.437,1.103-.594.288-1.321.432-2.18.432-.826,0-1.533-.14-2.122-.42-.589-.281-1.068-.638-1.437-1.073-.37-.435-.639-.914-.809-1.436-.171-.522-.256-1.024-.256-1.507,0-.498.074-1.021.223-1.565.149-.546.399-1.048.752-1.508.352-.457.828-.837,1.429-1.138.6-.301,1.346-.451,2.238-.451.572,0,1.087.067,1.544.202.457.133.856.316,1.197.545s.633.499.876.807c.242.308.438.63.586.967.149.337.259.68.33,1.031ZM67.955,12.383c0-.364-.049-.75-.148-1.156-.1-.408-.265-.783-.496-1.127-.231-.344-.54-.627-.925-.848-.385-.221-.864-.332-1.437-.332-.452,0-.851.072-1.197.214-.347.142-.664.34-.95.593-.187.166-.341.362-.463.587-.121.227-.215.464-.281.712-.066.249-.111.503-.132.759-.022.257-.033.497-.033.718,0,.364.052.739.157,1.127.104.387.275.743.512,1.067.237.325.548.592.933.801.385.21.859.314,1.42.314.584,0,1.071-.109,1.462-.326.391-.218.702-.494.933-.83.231-.337.396-.706.496-1.11.099-.403.148-.791.148-1.162ZM81.003,13.13c0,.364-.019.703-.058,1.021-.039.315-.138.593-.297.83-.159.237-.396.425-.71.563-.314.138-.746.207-1.297.207-.507,0-.903-.075-1.189-.225-.286-.15-.501-.35-.644-.599-.143-.249-.234-.529-.273-.842-.039-.313-.058-.631-.058-.955v-5.173h-1.569v5.066c0,.467.041.928.124,1.388.083.458.256.873.52,1.245.264.373.649.672,1.156.902.506.229,1.189.343,2.048.343.836,0,1.508-.116,2.015-.349.506-.233.895-.538,1.165-.913.269-.377.446-.794.528-1.251.083-.46.124-.915.124-1.365v-5.066h-1.585v5.173ZM88.055,16.759h1.586V7.957h-1.586v8.802ZM101.615,12.424c-.297-.194-.63-.348-.999-.463-.369-.114-.741-.216-1.115-.303-.187-.039-.369-.08-.545-.125-.176-.042-.353-.085-.529-.124-.22-.055-.435-.114-.644-.178-.209-.062-.394-.143-.553-.237-.16-.094-.286-.208-.38-.338-.094-.131-.14-.291-.14-.481,0-.419.182-.726.545-.919.363-.195.831-.291,1.404-.291.682,0,1.186.128,1.511.385.324.257.52.67.586,1.24l1.503-.107c-.033-.862-.377-1.521-1.032-1.981-.655-.458-1.528-.688-2.618-.688-.507,0-.969.059-1.387.178-.418.119-.779.287-1.082.504-.303.218-.537.479-.702.783-.165.305-.248.638-.248,1.002,0,.419.091.766.272,1.039.182.273.421.501.719.683.297.181.63.328.999.438.369.11.735.205,1.098.285.187.039.369.079.545.119.176.039.352.079.528.119.243.062.468.132.678.207.209.075.391.166.545.272.154.108.275.234.364.38.088.147.132.323.132.528,0,.451-.201.796-.603,1.037-.402.241-.916.362-1.544.362-.815,0-1.434-.166-1.858-.499-.424-.331-.674-.818-.752-1.459l-1.437.107c.022.989.402,1.736,1.14,2.242.737.506,1.728.758,2.973.758.539,0,1.03-.067,1.47-.201.44-.134.82-.32,1.14-.557.319-.237.567-.519.743-.843.176-.324.264-.676.264-1.056,0-.435-.091-.799-.273-1.091s-.421-.536-.718-.729ZM108.221,16.759h1.586V7.957h-1.586v8.802ZM120.212,7.957l3.98,8.802h-1.817l-1.09-2.598h-3.617l-1.024,2.598h-1.718l3.717-8.802h1.569ZM120.774,13.047c-.221-.546-.449-1.093-.685-1.638-.237-.545-.454-1.099-.653-1.661-.165.57-.363,1.125-.594,1.666-.231.542-.463,1.086-.694,1.632h2.626ZM135.456,14.233l-4.625-6.276h-1.536v8.802h1.553v-6.275l4.608,6.275h1.552V7.957h-1.552v6.276ZM151.394,16.759h-1.817l-1.09-2.598h-3.617l-1.024,2.598h-1.718l3.717-8.802h1.569l3.98,8.802ZM147.975,13.047c-.221-.546-.449-1.093-.685-1.638-.237-.545-.454-1.099-.653-1.661-.165.57-.363,1.125-.594,1.666-.231.542-.463,1.086-.694,1.632h2.626Z"/></g></g></g></svg>
