<svg width="357" height="84" viewBox="0 0 357 84" fill="none" xmlns="http://www.w3.org/2000/svg">
<g clip-path="url(#clip0_1481_33429)">
<path d="M64.944 83.8291C64.8205 83.886 64.697 83.9482 64.5684 83.9999H65.0469L64.944 83.8291Z" fill="#356EA1"/>
<path d="M87.1851 11.9061L81.9155 35.8011C77.4605 28.38 70.8 22.5546 62.875 19.1481C42.8052 10.3479 19.833 18.6304 11.6559 37.5456C9.72458 42.003 8.7345 46.8152 8.74836 51.6776L0 11.9061H24.9328L21.9172 0H65.2679L62.2677 11.9061H87.1851Z" fill="#003F5E"/>
<path d="M27.5731 79.7604C27.2077 79.4964 26.8526 79.2428 26.5078 78.9477L27.5679 77.8813C27.5525 78.5129 27.5525 79.1393 27.5731 79.7604Z" fill="#003F5E"/>
<path d="M78.4051 51.7138L76.7378 59.2871C69.7033 58.7658 62.6575 60.1361 56.3232 63.2575L51.6094 56.9007L57.1877 53.4583L52.3864 51.015C56.2385 49.6423 60.2954 48.942 64.382 48.9443C69.1896 48.9552 73.9503 49.8954 78.4051 51.7138Z" fill="#003F5E"/>
<path d="M75.8382 63.3712L72.3904 79.0148C71.5069 79.7836 70.579 80.4992 69.6115 81.1579L58.8047 66.6325C63.5145 64.4369 68.6454 63.3061 73.8364 63.3195C74.5208 63.3195 75.1795 63.335 75.8382 63.3712Z" fill="#003F5E"/>
<path d="M64.9446 83.8293C64.8211 83.8862 64.6976 83.9483 64.569 84.0001H42.5488C42.7066 83.5791 42.8782 83.1598 43.0634 82.7422C45.6514 76.7616 50.0254 71.7393 55.5787 68.3721L64.9446 83.8293Z" fill="#003F5E"/>
<path d="M53.4583 64.8415C47.1705 68.6466 42.2157 74.3255 39.2808 81.0907C38.8765 82.0374 38.5327 83.0091 38.2515 83.9999H34.9477L34.886 83.974C33.5694 83.3982 32.286 82.7484 31.0419 82.0277C30.93 79.1821 31.2053 76.3345 31.8601 73.564L32.8533 72.5649L32.2769 71.9851C34.1597 65.5634 38.0527 59.9244 43.3771 55.9067L44.7047 61.9478L49.5524 58.4018L53.4583 64.8415Z" fill="#003F5E"/>
<path d="M80.1614 43.7523L79.3123 47.6243C74.2291 45.6194 68.7957 44.6675 63.338 44.8258C57.8802 44.9842 52.5105 46.2494 47.5506 48.5458L41.0305 45.2276L42.4096 51.4861C36.8517 55.2542 32.4779 60.5393 29.8017 66.7207C29.5159 67.3804 29.2634 68.0542 29.0452 68.7395L28.1086 67.8129L22.3296 73.6158C20.5756 66.8268 21.1188 59.6436 23.8734 53.1995C29.1842 40.9725 41.4782 33.7822 54.7037 33.7822C59.7336 33.7896 64.7107 34.8142 69.3391 36.795L67.9291 38.2341L72.6687 43.0017L75.535 40.1183C77.1704 41.2044 78.7174 42.4196 80.1614 43.7523Z" fill="#003F5E"/>
<path d="M74.0412 32.0634L72.4562 33.6474C72.0909 33.4714 71.7203 33.3058 71.3447 33.1297C51.2749 24.3296 28.2976 32.6121 20.1256 51.5272C17.7224 57.0817 17.3827 64.1943 18.4582 70.08C12.5299 60.9279 11.017 49.4566 15.4375 39.1967C17.6205 34.155 21.0895 29.7833 25.493 26.5245L31.0507 34.9519L36.6394 31.2248L31.2617 23.0717C35.9609 20.8901 41.0768 19.7666 46.2523 19.7794C51.4737 19.8029 56.6347 20.9054 61.4149 23.0185C66.1952 25.1316 70.4928 28.2102 74.0412 32.0634Z" fill="#003F5E"/>
<path d="M26.4106 83.9999H15.892L12.1816 67.1709C14.4019 72.049 17.5646 76.4341 21.4858 80.0709C23.0254 81.5049 24.6718 82.8184 26.4106 83.9999Z" fill="#003F5E"/>
<path d="M122.4 28.7298C121.217 26.7057 119.729 24.8111 116.101 24.8111C110.894 24.8111 108.928 28.1137 108.928 35.1642C108.928 42.2147 110.894 45.4604 116.101 45.4604C119.863 45.4604 121.963 43.4364 123.229 42.2923L127.999 47.531C124.587 50.6991 120.342 51.7965 116.101 51.7965C104.78 51.7965 100.699 45.4604 100.699 35.1642C100.699 24.78 104.77 18.4854 116.101 18.4854C123.929 18.4854 126.908 22.1814 128.74 25.3961L122.4 28.7298Z" fill="#003F5E"/>
<path d="M147.179 51.7655C135.826 51.7655 131.74 45.4501 131.74 35.154C131.74 24.7698 135.811 18.4751 147.142 18.4751C158.474 18.4751 162.54 24.7698 162.54 35.154C162.555 45.4501 158.5 51.7655 147.179 51.7655ZM147.179 24.7905C141.971 24.7905 140 28.0931 140 35.1436C140 42.1941 141.95 45.4501 147.179 45.4501C152.407 45.4501 154.352 42.1527 154.352 35.154C154.352 28.1553 152.361 24.8112 147.179 24.8112V24.7905Z" fill="#003F5E"/>
<path d="M191.99 51.1289V30.842L186.175 43.6022H182.501L176.022 30.8886V51.1289H168.586V19.1533H177.947L184.379 32.4415L190.153 19.1533H199.416V51.1444L191.99 51.1289Z" fill="#003F5E"/>
<path d="M217.406 41.3608H214.252V51.1289H206.357V19.1533H217.319C226.895 19.1533 230.266 23.0254 230.266 30.2415C230.266 37.3127 226.854 41.3608 217.406 41.3608ZM217.164 25.6499H214.231V34.8021H217.56C221.276 34.8021 222.022 33.0886 222.022 30.226C222.022 27.3633 220.905 25.6499 217.164 25.6499Z" fill="#003F5E"/>
<path d="M253.276 51.1289L251.439 45.0361H240.498L238.708 51.1548H231.061L240.982 19.1533H251.218L261.366 51.1444L253.276 51.1289ZM245.928 26.8405L242.294 38.9381H249.586L245.928 26.8405Z" fill="#003F5E"/>
<path d="M277.549 51.7657C271.075 51.7657 267.226 49.8297 264.076 45.2536L270.504 41.4281C271.245 42.7003 272.317 43.745 273.605 44.4501C274.892 45.1551 276.347 45.4938 277.811 45.4296C280.219 45.4296 282.623 44.4616 282.623 42.5256C282.623 40.0201 281.048 39.1401 275.187 37.8667C269.238 36.5932 264.817 34.3932 264.817 28.0312C264.817 22.1765 269.449 18.4805 277.245 18.4805C282.71 18.4805 286.822 20.2871 289.359 24.4232L283.106 28.0778C282.494 27.0704 281.631 26.2402 280.604 25.6686C279.576 25.0969 278.419 24.8033 277.245 24.8166C273.874 24.8166 272.562 26.1418 272.562 27.8138C272.562 29.8844 274.965 30.4953 278.223 31.1993C283.472 32.3019 290.383 33.9739 290.383 42.51C290.368 47.8264 285.947 51.7657 277.549 51.7657Z" fill="#003F5E"/>
<path d="M306.549 51.7655C300.075 51.7655 296.226 49.8295 293.076 45.2534L299.504 41.4486C300.245 42.7212 301.317 43.7663 302.604 44.4714C303.892 45.1765 305.346 45.5149 306.811 45.4501C309.219 45.4501 311.623 44.4821 311.623 42.5461C311.623 40.0406 310.079 39.1606 304.187 37.8872C298.238 36.6137 293.822 34.4137 293.822 28.0517C293.822 22.197 298.454 18.501 306.245 18.501C311.71 18.501 315.827 20.3076 318.364 24.4437L312.106 28.0983C311.495 27.0898 310.633 26.2588 309.605 25.687C308.577 25.1152 307.419 24.8223 306.245 24.8371C302.874 24.8371 301.562 26.1623 301.562 27.8343C301.562 29.9049 303.97 30.5158 307.223 31.2198C312.472 32.3224 319.383 33.9944 319.383 42.5306C319.368 47.8262 314.942 51.7655 306.549 51.7655Z" fill="#003F5E"/>
<path d="M111.511 67.0676C111.2 66.4357 110.713 65.9076 110.111 65.5467C109.509 65.1859 108.815 65.0076 108.115 65.0332C105.12 65.0332 103.998 66.964 103.998 70.6342C103.998 74.3044 105.135 76.2145 108.115 76.2145C109.463 76.213 110.756 75.6795 111.717 74.7289L113.513 76.7995C112.016 78.0935 110.087 78.7671 108.115 78.6838C102.969 78.6838 100.91 75.8366 100.91 70.6601C100.91 65.4835 102.969 62.6157 108.115 62.6157C111.511 62.6157 113.055 64.1687 113.919 65.7579L111.511 67.0676Z" fill="#003F5E"/>
<path d="M116.662 78.3368V62.9106H119.637V75.852H126.512V78.3575L116.662 78.3368Z" fill="#003F5E"/>
<path d="M128.771 78.337V76.0231H130.753V65.2248H128.771V62.916H135.714V65.2248H133.732V76.0282H135.714V78.3422L128.771 78.337Z" fill="#003F5E"/>
<path d="M148.984 67.0676C148.672 66.4361 148.186 65.9084 147.583 65.5476C146.981 65.1868 146.288 65.0082 145.587 65.0332C142.592 65.0332 141.47 66.964 141.47 70.6342C141.47 74.3044 142.613 76.2145 145.587 76.2145C146.934 76.208 148.226 75.6753 149.19 74.7289L150.98 76.7995C149.486 78.0941 147.558 78.7678 145.587 78.6838C140.441 78.6838 138.383 75.8366 138.383 70.6601C138.383 65.4835 140.441 62.6157 145.587 62.6157C148.984 62.6157 150.522 64.1687 151.387 65.7579L148.984 67.0676Z" fill="#003F5E"/>
<path d="M163.182 78.3368L159.174 70.8877L157.115 73.2223V78.3368H154.141V62.9106H157.115V69.4228L162.688 62.9106H166.167L161.211 68.5738L166.589 78.3368H163.182Z" fill="#003F5E"/>
<path d="M170.505 78.5698C169.301 78.5698 168.879 77.9797 168.879 77.0168C168.879 75.9815 169.393 75.4639 170.505 75.4639C171.617 75.4639 172.172 75.9298 172.172 77.0168C172.172 78.1039 171.56 78.5698 170.505 78.5698Z" fill="#003F5E"/>
<path d="M191.074 78.3368L189.917 74.7701H184.199L183.057 78.3368H180.113L185.156 62.9106H189.021L194.167 78.3368H191.074ZM187.045 65.794L184.915 72.3734H189.155L187.045 65.794Z" fill="#003F5E"/>
<path d="M201.644 73.0722H199.724V78.3368H196.75V62.9106H201.665C205.823 62.9106 207.619 64.4636 207.619 67.9164C207.619 71.3691 205.951 73.0722 201.644 73.0722ZM201.562 65.4109H199.724V70.5512H201.541C203.733 70.5512 204.495 69.8886 204.495 67.963C204.495 66.1563 203.589 65.4109 201.562 65.4109Z" fill="#003F5E"/>
<path d="M215.622 73.0722H213.697V78.3368H210.723V62.9106H215.642C219.795 62.9106 221.591 64.4636 221.591 67.9164C221.591 71.3691 219.939 73.0722 215.622 73.0722ZM215.534 65.4109H213.697V70.5512H215.514C217.706 70.5512 218.468 69.8886 218.468 67.963C218.483 66.1563 217.577 65.4109 215.55 65.4109H215.534Z" fill="#003F5E"/>
<path d="M224.73 78.3368V62.9106H227.705V75.852H234.58V78.3575L224.73 78.3368Z" fill="#003F5E"/>
<path d="M242.896 72.099V78.3368H239.921V72.2699L234.775 62.9106H238.028L241.501 69.3658L245.068 62.9158H248.104L242.896 72.099Z" fill="#003F5E"/>
<path d="M250.002 78.5698C248.803 78.5698 248.381 77.9797 248.381 77.0168C248.381 75.9815 248.895 75.4639 250.002 75.4639C251.108 75.4639 251.669 75.9298 251.669 77.0168C251.669 78.1039 251.057 78.5698 250.002 78.5698Z" fill="#003F5E"/>
<path d="M266.671 78.3368H260.83V62.9106H266.167C269.903 62.9106 271.544 63.946 271.544 66.4928C271.6 67.2402 271.401 67.9844 270.978 68.602C270.556 69.2196 269.937 69.6736 269.223 69.8886C271.282 70.2303 272.517 71.4416 272.517 73.8177C272.517 76.6803 270.639 78.3368 266.671 78.3368ZM265.765 65.3488H263.805V69.0397H265.575C267.793 69.0397 268.467 68.2373 268.467 67.1295C268.467 65.7422 267.623 65.3488 265.765 65.3488ZM266.336 71.4364H263.805V75.8934H266.017C268.024 75.8934 269.434 75.4483 269.434 73.6624C269.434 71.8764 268.359 71.4364 266.336 71.4364Z" fill="#003F5E"/>
<path d="M275.723 78.3368V62.9106H285.768V65.4109H278.697V69.0863H285.094V71.5451H278.697V75.8313H285.768V78.3368H275.723Z" fill="#003F5E"/>
<path d="M298.238 78.3368L291.929 67.026V78.3368H289.145V62.9106H292.747L298.716 73.5433V62.9106H301.5V78.3368H298.238Z" fill="#003F5E"/>
<path d="M305.281 78.3368V62.9106H315.326V65.4109H308.251V69.0863H314.647V71.5451H308.251V75.8313H315.321V78.3368H305.281Z" fill="#003F5E"/>
<path d="M321.678 65.4109V69.2519H328.048V71.716H321.678V78.3368H318.703V62.9106H328.743V65.4109H321.678Z" fill="#003F5E"/>
<path d="M331.234 78.337V76.0231H333.221V65.2248H331.234V62.916H338.176V65.2248H336.195V76.0282H338.176V78.3422L331.234 78.337Z" fill="#003F5E"/>
<path d="M347.731 65.4109V78.3523H344.756V65.4109H340.125V62.9106H352.383V65.4109H347.731Z" fill="#003F5E"/>
<path d="M355.307 78.5698C354.108 78.5698 353.686 77.9797 353.686 77.0168C353.686 75.9815 354.2 75.4639 355.307 75.4639C356.413 75.4639 356.974 75.9298 356.974 77.0168C356.974 78.1039 356.362 78.5698 355.307 78.5698Z" fill="#003F5E"/>
</g>
<defs>
<clipPath id="clip0_1481_33429">
<rect width="357" height="84" fill="white"/>
</clipPath>
</defs>
</svg>
